<?xml version="1.0" encoding="UTF-8" standalone="no"?>
<svg
   xmlns:osb="http://www.openswatchbook.org/uri/2009/osb"
   xmlns:dc="http://purl.org/dc/elements/1.1/"
   xmlns:cc="http://creativecommons.org/ns#"
   xmlns:rdf="http://www.w3.org/1999/02/22-rdf-syntax-ns#"
   xmlns:svg="http://www.w3.org/2000/svg"
   xmlns="http://www.w3.org/2000/svg"
   id="svg8"
   version="1.1"
   viewBox="0 0 71.005814 23.345202"
   height="23.345201mm"
   width="71.005814mm">
  <defs
     id="defs2">
    <linearGradient
       osb:paint="solid"
       id="linearGradient10178">
      <stop
         id="stop10176"
         offset="0"
         style="stop-color:#ff2a2a;stop-opacity:1;" />
    </linearGradient>
    <filter
       x="-0.25"
       width="1.5"
       y="-0.25"
       height="1.5"
       id="filter10391"
       style="color-interpolation-filters:sRGB">
      <feFlood
         id="feFlood10381"
         result="flood"
         flood-color="rgb(0,0,0)"
         flood-opacity="0.498039" />
      <feComposite
         id="feComposite10383"
         result="composite1"
         operator="in"
         in2="SourceGraphic"
         in="flood" />
      <feGaussianBlur
         id="feGaussianBlur10385"
         result="blur"
         stdDeviation="2"
         in="composite1" />
      <feOffset
         id="feOffset10387"
         result="offset"
         dy="1"
         dx="1" />
      <feComposite
         id="feComposite10389"
         result="fbSourceGraphic"
         operator="over"
         in2="offset"
         in="SourceGraphic" />
      <feColorMatrix
         id="feColorMatrix10393"
         values="0 0 0 -1 0 0 0 0 -1 0 0 0 0 -1 0 0 0 0 1 0"
         in="fbSourceGraphic"
         result="fbSourceGraphicAlpha" />
      <feGaussianBlur
         in="fbSourceGraphic"
         result="result8"
         stdDeviation="4"
         id="feGaussianBlur10395" />
      <feTurbulence
         baseFrequency="0.01 0.01"
         numOctaves="7"
         type="turbulence"
         result="result7"
         seed="50"
         id="feTurbulence10397" />
      <feColorMatrix
         values="1 0 0 0 0 0 1 0 0 0 0 0 1 0 0 0 0 0 1.4 0 "
         result="result5"
         id="feColorMatrix10399" />
      <feComposite
         operator="in"
         in="result5"
         result="result6"
         id="feComposite10401"
         in2="result8" />
      <feDisplacementMap
         result="result4"
         scale="100"
         yChannelSelector="A"
         xChannelSelector="A"
         in="result5"
         id="feDisplacementMap10403"
         in2="result6" />
      <feFlood
         result="result9"
         flood-color="rgb(224,224,224)"
         flood-opacity="1"
         id="feFlood10405" />
      <feComposite
         operator="atop"
         result="result2"
         id="feComposite10407"
         in2="result4" />
      <feComposite
         result="result9"
         operator="atop"
         in="result2"
         id="feComposite10409"
         in2="fbSourceGraphic" />
      <feBlend
         mode="darken"
         result="fbSourceGraphic"
         id="feBlend10411"
         in2="result9" />
      <feGaussianBlur
         result="result0"
         in="fbSourceGraphic"
         stdDeviation="5"
         id="feGaussianBlur10413" />
      <feSpecularLighting
         specularExponent="30"
         specularConstant="0.80000001"
         surfaceScale="8"
         lighting-color="#ffffff"
         result="result1"
         in="result0"
         id="feSpecularLighting10415">
        <feDistantLight
           azimuth="235"
           elevation="55"
           id="feDistantLight10417" />
      </feSpecularLighting>
      <feComposite
         operator="in"
         result="result2"
         in="result1"
         id="feComposite10419"
         in2="fbSourceGraphic" />
      <feComposite
         k4="0"
         k1="0"
         k3="1"
         k2="1"
         operator="arithmetic"
         result="fbSourceGraphic"
         in="fbSourceGraphic"
         id="feComposite10421"
         in2="result2" />
      <feColorMatrix
         id="feColorMatrix10423"
         values="0 0 0 -1 0 0 0 0 -1 0 0 0 0 -1 0 0 0 0 1 0"
         in="fbSourceGraphic"
         result="fbSourceGraphicAlpha" />
      <feGaussianBlur
         result="result91"
         stdDeviation="0.01"
         in="fbSourceGraphicAlpha"
         id="feGaussianBlur10425" />
      <feComposite
         in="fbSourceGraphic"
         operator="in"
         result="fbSourceGraphic"
         id="feComposite10427"
         in2="result91" />
      <feGaussianBlur
         stdDeviation="0.01"
         in="fbSourceGraphic"
         result="result1"
         id="feGaussianBlur10429" />
      <feTurbulence
         seed="20"
         type="fractalNoise"
         baseFrequency="0.04"
         numOctaves="4"
         result="result0"
         id="feTurbulence10431" />
      <feDisplacementMap
         in="result1"
         xChannelSelector="R"
         yChannelSelector="G"
         scale="30"
         result="result2"
         id="feDisplacementMap10433"
         in2="result0" />
      <feColorMatrix
         result="result3"
         values="1"
         type="saturate"
         id="feColorMatrix10435" />
      <feGaussianBlur
         stdDeviation="0.01"
         in="fbSourceGraphic"
         result="result4"
         id="feGaussianBlur10437" />
      <feComposite
         in="result4"
         result="fbSourceGraphic"
         operator="atop"
         id="feComposite10439"
         in2="result3" />
      <feGaussianBlur
         stdDeviation="1.5"
         in="fbSourceGraphic"
         result="result0"
         id="feGaussianBlur10441" />
      <feTurbulence
         type="fractalNoise"
         result="result1"
         numOctaves="8"
         seed="20"
         baseFrequency="0.02"
         id="feTurbulence10443" />
      <feComposite
         in="result0"
         operator="out"
         result="result2"
         id="feComposite10445"
         in2="result1" />
      <feSpecularLighting
         in="result2"
         specularExponent="30"
         specularConstant="2"
         result="result4"
         surfaceScale="2.5"
         lighting-color="#dfbc10"
         id="feSpecularLighting10447">
        <feDistantLight
           azimuth="225"
           elevation="62"
           id="feDistantLight10449" />
      </feSpecularLighting>
      <feComposite
         result="result92"
         operator="atop"
         in="result4"
         id="feComposite10451"
         in2="result2" />
      <feBlend
         mode="multiply"
         id="feBlend10453"
         in2="result92" />
    </filter>
  </defs>
  <metadata
     id="metadata5">
    <rdf:RDF>
      <cc:Work
         rdf:about="">
        <dc:format>image/svg+xml</dc:format>
        <dc:type
           rdf:resource="http://purl.org/dc/dcmitype/StillImage" />
        <dc:title></dc:title>
      </cc:Work>
    </rdf:RDF>
  </metadata>
  <g
     transform="translate(-37.02226,42.296359)"
     id="layer1">
    <g
       id="g11202">
      <path
         id="path11106"
         d="m 84.269473,-19.517213 c -1.1146,-0.551714 -2.435151,-1.953118 -2.435151,-2.584245 0,-0.175591 0.418391,-0.494071 0.929756,-0.707734 0.918544,-0.383791 0.940991,-0.377245 1.860905,0.542668 0.808188,0.808189 1.099957,0.931145 2.209559,0.931145 1.611154,0 2.553491,-0.691385 2.950162,-2.164509 0.372039,-1.381642 0.06467,-1.730172 -1.027676,-1.165298 -0.446055,0.230664 -1.356529,0.41939 -2.023274,0.41939 -5.062902,0 -7.432908,-6.531944 -3.666892,-10.106277 1.564603,-1.484969 3.67007,-1.898505 5.644256,-1.108593 0.829175,0.33177 1.150519,0.357206 1.443278,0.114239 0.207135,-0.171907 0.77134,-0.274668 1.253789,-0.228359 l 0.877179,0.0842 0.07611,5.688542 c 0.08278,6.187587 -0.09422,7.520352 -1.189768,8.958487 -1.398513,1.83584 -4.621657,2.455206 -6.90223,1.326346 z m 4.94226,-8.016979 c 0.848781,-0.848781 1.085078,-3.113482 0.452493,-4.336764 -0.762029,-1.473601 -2.590884,-2.032085 -4.099586,-1.251905 -2.015731,1.042375 -2.399771,4.093573 -0.714513,5.676792 1.272683,1.195623 3.115086,1.158399 4.361606,-0.08812 z m -45.901723,2.92557 c -0.597174,-0.19373 -1.625265,-0.72342 -2.284648,-1.177087 -2.65482,-1.826564 -4.003102,-4.350879 -4.003102,-7.49479 0,-1.748024 0.117192,-2.265398 0.850579,-3.755119 1.052835,-2.138612 2.943153,-3.903618 5.014384,-4.681974 2.855853,-1.073211 6.564171,-0.615301 8.535208,1.053945 l 0.910849,0.771386 -0.79375,0.80517 -0.79375,0.805169 -1.558639,-0.787145 c -2.580991,-1.303454 -5.073548,-0.992039 -7.226233,0.90283 -0.667113,0.587216 -1.431359,1.548525 -1.698324,2.136241 -0.556965,1.226145 -0.641826,3.434251 -0.189948,4.942487 0.397128,1.325496 1.850512,3.012682 3.179043,3.690448 3.461137,1.76574 8.059891,0.02 8.592453,-3.261798 l 0.158496,-0.976696 -2.877382,-0.07543 -2.877383,-0.07543 v -1.058333 -1.058334 h 4.101042 4.101042 l -0.016,2.116667 c -0.01837,2.430739 -0.495241,3.608249 -2.11447,5.221149 -1.598562,1.592313 -3.069292,2.174585 -5.674742,2.246668 -1.326093,0.03669 -2.694506,-0.08232 -3.334728,-0.290018 z m 15.481031,-0.247568 c -3.477224,-1.820161 -4.100851,-6.71036 -1.197081,-9.386962 2.383217,-2.196772 5.616257,-2.196772 7.999475,0 2.157378,1.988603 2.488512,5.05163 0.813784,7.527619 -1.142471,1.689079 -2.663976,2.469737 -4.813522,2.469737 -1.195796,0 -1.95062,-0.164394 -2.802656,-0.610394 z m 4.930186,-2.654843 c 1.4902,-1.4902 1.540214,-3.435212 0.128948,-5.014693 -0.683977,-0.765503 -0.903966,-0.848195 -2.256478,-0.848195 -1.352513,0 -1.572501,0.08269 -2.256478,0.848195 -1.411265,1.579481 -1.361251,3.524493 0.128949,5.014693 0.751484,0.751484 1.070384,0.883987 2.127529,0.883987 1.057144,0 1.376045,-0.132503 2.12753,-0.883987 z m 8.331417,2.984434 c -2.293699,-0.963032 -3.55519,-2.927986 -3.569994,-5.560779 -0.0083,-1.483996 0.10781,-1.930747 0.788049,-3.031008 2.265344,-3.664108 7.780652,-3.664108 10.045996,0 0.676712,1.094556 0.79752,1.554708 0.795769,3.031008 -0.0026,2.156488 -0.791596,3.726705 -2.462004,4.899492 -0.977392,0.686224 -1.414034,0.810849 -3.042708,0.868443 -1.045856,0.03698 -2.195653,-0.05624 -2.555108,-0.207156 z m 4.36331,-2.979163 c 1.625875,-1.625875 1.444739,-4.167976 -0.384844,-5.400931 -1.131509,-0.762524 -2.343317,-0.762524 -3.474826,0 -1.829583,1.232955 -2.01072,3.775056 -0.384844,5.400931 0.74595,0.745952 1.066601,0.878716 2.122257,0.878716 1.055656,0 1.376307,-0.132764 2.122257,-0.878716 z m 24.317356,2.759159 c -1.904446,-0.864982 -3.288571,-3.104121 -3.288571,-5.320026 0,-3.982531 4.016541,-6.91559 7.482981,-5.464406 1.62721,0.681216 3.62,3.488171 2.93546,4.134778 -0.12759,0.120521 -1.7195,0.831368 -3.53758,1.57966 -1.81807,0.748293 -3.41027,1.465205 -3.5382,1.593138 -0.13375,0.133753 0.0572,0.522404 0.4493,0.91451 0.95729,0.957286 2.79791,0.95435 4.18468,-0.0067 l 0.99362,-0.68858 0.80654,0.574305 c 0.44359,0.315869 0.80653,0.662986 0.80653,0.771372 0,0.388848 -1.47417,1.598835 -2.43889,2.001824 -1.32207,0.552259 -3.5321,0.511345 -4.85587,-0.0899 z m 2.15378,-6.667633 c 1.09145,-0.454372 1.96598,-0.979859 1.96598,-1.181316 0,-0.889715 -2.33252,-1.232966 -3.38222,-0.497724 -0.58565,0.410208 -1.38028,1.688118 -1.38028,2.219758 0,0.46065 0.73034,0.319436 2.79652,-0.540718 z m -8.755686,6.586645 c -0.07375,-0.192176 -0.102553,-4.039185 -0.06402,-8.548911 l 0.07006,-8.199502 h 1.058333 1.058334 v 8.466666 8.466667 l -0.994315,0.08224 c -0.642916,0.05318 -1.041699,-0.04124 -1.128395,-0.267165 z"
         style="fill:#f9bd23;stroke-width:0.26458335" />
      <path
         style="fill:#4d8dee;stroke-width:1.00000012"
         d="m 675.41992,335.74414 c -5.17242,-0.13161 -10.20403,1.81329 -14.26953,5.67188 -14.23376,13.50929 -5.276,38.19726 13.85938,38.19726 2.51998,0 5.9606,-0.71414 7.64648,-1.58594 4.12855,-2.13495 5.2909,-0.81765 3.88477,4.4043 -1.49923,5.56771 -5.06099,8.18164 -11.1504,8.18164 -4.19377,0 -5.29699,-0.46496 -8.35156,-3.51953 -3.47684,-3.47684 -3.56154,-3.50133 -7.0332,-2.05078 -1.93272,0.80754 -3.51367,2.01213 -3.51367,2.67578 0,2.38536 4.99046,7.68041 9.20312,9.76563 8.61949,4.26655 20.80217,1.92688 26.08789,-5.01172 4.14066,-5.43547 4.80897,-10.47322 4.4961,-33.85938 l -0.28711,-21.5 -3.31446,-0.31836 c -1.82342,-0.17502 -3.95736,0.21356 -4.74023,0.86328 -1.10649,0.9183 -2.32119,0.8223 -5.45508,-0.43164 -2.33171,-0.93296 -4.7114,-1.4226 -7.0625,-1.48242 z m 0.71094,8.98633 c 4.08823,0.0393 7.975,2.23346 9.95508,6.0625 2.39087,4.62343 1.49705,13.18459 -1.71094,16.39258 -4.71126,4.71125 -11.67423,4.85092 -16.48438,0.33203 -6.36947,-5.98382 -4.91733,-17.51539 2.70118,-21.45508 1.78193,-0.92147 3.68077,-1.34989 5.53906,-1.33203 z"
         transform="matrix(0.26458333,0,0,0.26458333,-91.862564,-124.68515)"
         id="path11192" />
      <path
         style="fill:#4d8dee;stroke-width:0.26458335"
         d="m 43.31001,-24.608622 c -0.597174,-0.19373 -1.625265,-0.72342 -2.284648,-1.177087 -2.65482,-1.826564 -4.003102,-4.350879 -4.003102,-7.49479 0,-1.748024 0.117192,-2.265398 0.850579,-3.755119 1.052835,-2.138612 2.943153,-3.903618 5.014384,-4.681974 2.855853,-1.073211 6.564171,-0.615301 8.535208,1.053945 l 0.910849,0.771386 -0.79375,0.80517 -0.79375,0.805169 -1.558639,-0.787145 c -2.580991,-1.303454 -5.073548,-0.992039 -7.226233,0.90283 -0.667113,0.587216 -1.431359,1.548525 -1.698324,2.136241 -0.556965,1.226145 -0.641826,3.434251 -0.189948,4.942487 0.397128,1.325496 1.850512,3.012682 3.179043,3.690448 3.461137,1.76574 8.059891,0.02 8.592453,-3.261798 l 0.158496,-0.976696 -2.877382,-0.07543 -2.877383,-0.07543 v -1.058333 -1.058334 h 4.101042 4.101042 l -0.016,2.116667 c -0.01837,2.430739 -0.495241,3.608249 -2.11447,5.221149 -1.598562,1.592313 -3.069292,2.174585 -5.674742,2.246668 -1.326093,0.03669 -2.694506,-0.08232 -3.334728,-0.290018 z"
         id="path11188" />
      <path
         style="fill:#34a853;fill-opacity:1;stroke-width:0.26458335"
         d="m 94.131404,-24.827591 c -0.07375,-0.192176 -0.102553,-4.039185 -0.06402,-8.548911 l 0.07006,-8.199502 h 1.058333 1.058334 v 8.466666 8.466667 l -0.994315,0.08224 c -0.642916,0.05318 -1.041699,-0.04124 -1.128395,-0.267165 z"
         id="path11104" />
      <path
         id="path11102"
         d="m 58.629184,-25.040499 c -5.099628,-2.924712 -2.934667,-10.844012 2.964513,-10.844012 2.514481,0 4.88887,1.763224 5.581144,4.144566 1.500879,5.162843 -3.875608,9.377789 -8.545657,6.699446 z m 3.965198,-1.684739 c 1.304352,-0.555777 2.085653,-1.564281 2.234425,-2.884197 0.434023,-3.85062 -4.387029,-5.445254 -6.150813,-2.034472 -0.898816,1.738118 -0.201903,3.868792 1.54889,4.735428 1.307293,0.647105 1.283228,0.645242 2.367498,0.183241 z m 38.562428,2.18507 c -2.262112,-0.902803 -3.560206,-2.917816 -3.560206,-5.526461 0,-5.385907 5.842186,-7.817563 9.305436,-3.87314 0.85522,0.974036 1.34072,2.159148 1.01711,2.482758 -0.0949,0.09486 -1.74627,0.836385 -3.6698,1.647831 -2.06246,0.870056 -3.49732,1.6238 -3.49732,1.837171 0,0.198998 0.31803,0.599258 0.70674,0.889468 1.02189,0.762955 2.64373,0.697543 3.84187,-0.154951 0.8891,-0.632604 1.01321,-0.654765 1.69434,-0.302545 1.07177,0.554238 1.16252,0.871792 0.4655,1.628939 -1.32813,1.442694 -4.43229,2.117791 -6.30367,1.37093 z m 2.24105,-7.044968 c 1.62584,-0.641126 1.81371,-0.84959 1.28859,-1.429846 -0.55722,-0.615719 -2.38479,-0.660217 -3.2156,-0.07829 -0.73573,0.515325 -1.46673,1.890561 -1.27311,2.395119 0.12462,0.324763 0.2884,0.318276 1.14362,-0.0453 0.54899,-0.233388 1.47442,-0.612145 2.0565,-0.841681 z"
         style="fill:#ea4d40;stroke-width:0.26458335" />
    </g>
  </g>
</svg>
