<?xml version="1.0" encoding="UTF-8" standalone="no"?>
<svg focusable="false" viewBox="0 0 24 24" aria-hidden="true">
  <path
     d="M 5 4 C 3.89 4 3 4.9 3 6 L 3 18 C 3 19.1 3.89 20 5 20 L 19 20 C 20.1 20 21 19.1 21 18 L 21 6 C 21 4.9 20.11 4 19 4 L 5 4 z M 5 8 L 19 8 L 19 18 L 16.824219 18 A 4.8378887 3.8870897 0 0 0 14.150391 14.765625 A 3.1600082 3.1600082 0 0 0 15.160156 12.455078 A 3.1600082 3.1600082 0 0 0 12 9.2949219 A 3.1600082 3.1600082 0 0 0 8.8398438 12.455078 A 3.1600082 3.1600082 0 0 0 9.8535156 14.767578 A 4.8378887 3.8870897 0 0 0 7.1777344 18 L 5 18 L 5 8 z "
     id="path11386" />
</svg>
