<?xml version="1.0" encoding="UTF-8" standalone="no"?>
<svg
   xmlns:dc="http://purl.org/dc/elements/1.1/"
   xmlns:cc="http://creativecommons.org/ns#"
   xmlns:rdf="http://www.w3.org/1999/02/22-rdf-syntax-ns#"
   xmlns:svg="http://www.w3.org/2000/svg"
   xmlns="http://www.w3.org/2000/svg"
   xmlns:sodipodi="http://sodipodi.sourceforge.net/DTD/sodipodi-0.dtd"
   xmlns:inkscape="http://www.inkscape.org/namespaces/inkscape"
   class="MuiSvgIcon-root jss172"
   focusable="false"
   viewBox="0 0 117.99999 118"
   aria-hidden="true"
   version="1.1"
   id="svg11388"
   sodipodi:docname="icon.svg"
   inkscape:version="0.92.5 (2060ec1f9f, 2020-04-08)"
   width="118"
   height="118"
   inkscape:export-filename="/home/awt/code/dci/fbw14/Full_Stack/XX-Graphix/some-design/public/logo64.png"
   inkscape:export-xdpi="52.07"
   inkscape:export-ydpi="52.07">
  <metadata
     id="metadata11394">
    <rdf:RDF>
      <cc:Work
         rdf:about="">
        <dc:format>image/svg+xml</dc:format>
        <dc:type
           rdf:resource="http://purl.org/dc/dcmitype/StillImage" />
        <dc:title></dc:title>
      </cc:Work>
    </rdf:RDF>
  </metadata>
  <defs
     id="defs11392" />
  <sodipodi:namedview
     pagecolor="#ffffff"
     bordercolor="#666666"
     borderopacity="1"
     objecttolerance="10"
     gridtolerance="10"
     guidetolerance="10"
     inkscape:pageopacity="0"
     inkscape:pageshadow="2"
     inkscape:window-width="1866"
     inkscape:window-height="1016"
     id="namedview11390"
     showgrid="false"
     inkscape:zoom="3.4766083"
     inkscape:cx="65.846786"
     inkscape:cy="52.068898"
     inkscape:window-x="54"
     inkscape:window-y="27"
     inkscape:window-maximized="1"
     inkscape:current-layer="svg11388"
     fit-margin-top="0"
     fit-margin-left="0"
     fit-margin-right="0"
     fit-margin-bottom="0" />
  <g
     id="g12622"
     transform="translate(-28.627317,13.765386)"
     style="stroke:#ffffff;stroke-opacity:1;paint-order:stroke fill markers">
    <path
       style="fill:#f1b502;stroke:#ffffff;stroke-width:6.93250608;stroke-opacity:1;paint-order:stroke fill markers"
       d="m 88.016817,58.679147 c 0,-36.973367 1.540557,-41.595038 13.865013,-41.595038 12.32446,0 13.86501,4.621671 13.86501,41.595038 0,36.973364 -1.54055,41.595033 -13.86501,41.595033 -12.324456,0 -13.865013,-4.621669 -13.865013,-41.595033 z"
       id="path12630"
       inkscape:connector-curvature="0" />
    <path
       style="fill:#393dd4;stroke:#ffffff;stroke-width:6.93250608;stroke-opacity:1;paint-order:stroke fill markers"
       d="M 61.716208,50.739815 C 63.285053,12.586672 66.540519,-0.5461265 75.884931,-6.4179025 89.567164,-15.015448 109.38282,-6.234998 114.39662,10.64688 c 1.67764,5.648757 -1.32029,4.367526 -6.97811,-2.9822487 C 101.96286,0.57747955 91.724592,-4.1019624 84.666816,-2.7341281 68.595563,0.38056518 62.167695,17.084109 77.040349,17.084109 c 8.794012,0 10.976468,8.270359 10.976468,41.595038 0,37.270567 -1.473066,41.595033 -14.168723,41.595033 -13.138026,0 -14.020554,-3.603346 -12.131886,-49.534365 z"
       id="path12628"
       inkscape:connector-curvature="0" />
    <path
       style="fill:#6cc700;stroke:#ffffff;stroke-width:6.93250608;stroke-opacity:1;paint-order:stroke fill markers"
       d="m 115.74684,59.256853 c 0,-33.468714 2.21761,-42.172744 10.74472,-42.172744 8.68591,0 10.34634,7.533035 8.66563,39.314213 -2.98478,56.440398 -19.41035,58.859368 -19.41035,2.858531 z"
       id="path12626"
       inkscape:connector-curvature="0" />
    <path
       style="fill:#f10232;stroke:#ffffff;stroke-width:6.93250608;stroke-opacity:1;paint-order:stroke fill markers"
       d="M 44.110944,95.652511 C 41.569025,93.110597 39.489273,74.39283 39.489273,54.057475 c 0,-28.243543 2.455263,-36.973366 10.39876,-36.973366 8.087924,0 10.398759,9.243341 10.398759,41.595038 0,38.43839 -4.477207,48.672013 -16.175848,36.973364 z"
       id="path12624"
       inkscape:connector-curvature="0" />
  </g>
</svg>
