<?xml version="1.0" encoding="UTF-8" standalone="no"?>
<svg
   xmlns:dc="http://purl.org/dc/elements/1.1/"
   xmlns:cc="http://creativecommons.org/ns#"
   xmlns:rdf="http://www.w3.org/1999/02/22-rdf-syntax-ns#"
   xmlns:svg="http://www.w3.org/2000/svg"
   xmlns="http://www.w3.org/2000/svg"
   xmlns:sodipodi="http://sodipodi.sourceforge.net/DTD/sodipodi-0.dtd"
   xmlns:inkscape="http://www.inkscape.org/namespaces/inkscape"
   class="MuiSvgIcon-root jss172"
   focusable="false"
   viewBox="0 0 232.8701 94"
   aria-hidden="true"
   version="1.1"
   id="svg11388"
   sodipodi:docname="logo.svg"
   inkscape:version="0.92.5 (2060ec1f9f, 2020-04-08)"
   width="232.8701"
   height="94">
  <metadata
     id="metadata11394">
    <rdf:RDF>
      <cc:Work
         rdf:about="">
        <dc:format>image/svg+xml</dc:format>
        <dc:type
           rdf:resource="http://purl.org/dc/dcmitype/StillImage" />
        <dc:title></dc:title>
      </cc:Work>
    </rdf:RDF>
  </metadata>
  <defs
     id="defs11392" />
  <sodipodi:namedview
     pagecolor="#ffffff"
     bordercolor="#666666"
     borderopacity="1"
     objecttolerance="10"
     gridtolerance="10"
     guidetolerance="10"
     inkscape:pageopacity="0"
     inkscape:pageshadow="2"
     inkscape:window-width="1866"
     inkscape:window-height="1016"
     id="namedview11390"
     showgrid="false"
     inkscape:zoom="3.4766083"
     inkscape:cx="107.91018"
     inkscape:cy="30.822999"
     inkscape:window-x="54"
     inkscape:window-y="27"
     inkscape:window-maximized="1"
     inkscape:current-layer="svg11388"
     fit-margin-top="0"
     fit-margin-left="0"
     fit-margin-right="0"
     fit-margin-bottom="0" />
  <g
     id="g12555"
     transform="translate(-24.549034,64.797158)">
    <path
       style="fill:#f3ad00"
       d="m 156.41267,10.268502 c -4.58831,-1.3957 -8.95699,-4.08026 -10.51873,-6.46378 -6.16978,-9.41626 -1.72869,-21.2606 9.24787,-24.66397 2.07753,-0.64416 9.96483,-1.39477 17.52733,-1.66803 l 13.75,-0.49684 v -2.87075 c 0,-1.75898 -1.13005,-4.13548 -2.91797,-6.13651 -2.84378,-3.182749 -3.12554,-3.26578 -11.08203,-3.26578 -7.97227,0 -8.23326,0.07745 -11.10992,3.29699 -2.7917,3.12445 -3.25963,3.28145 -8.94131,3 l -5.99545,-0.29699 2.27334,-4.472962 c 1.72192,-3.388005 3.47905,-5.085919 7.24413,-7 4.46353,-2.269162 6.14731,-2.527038 16.5,-2.527038 14.40899,0 19.44493,1.971346 23.48036,9.191509 2.48717,4.450041 2.54885,5.029231 2.54885,23.934441 v 19.37405 h -5.5 c -5.43599,0 -5.5,-0.0347 -5.5,-2.97939 v -2.97939 l -4.3181,3.04367 c -2.37496,1.67403 -6.08746,3.45402 -8.25,3.95554 -4.67282,1.08369 -14.91268,1.0977 -18.43837,0.0252 z m 21.50665,-9.06575 c 4.71412,-2.28206 8.49982,-8.02134 8.49982,-12.88606 v -3.11385 l -9.75,0.006 c -10.86795,0.006 -16.43095,1.17537 -19.31493,4.05935 -3.58361,3.58361 -1.65024,10.89662 3.42193,12.94349 3.99406,1.6118 12.80053,1.09373 17.14318,-1.00851 z"
       id="path12542"
       inkscape:connector-curvature="0" />
    <path
       style="fill:#84b615"
       d="m 213.35089,19.829072 c 2.78754,-5.15557 5.06825,-9.89774 5.06825,-10.53815 0,-0.64041 -5.85,-12.13802 -13,-25.55024 -7.15,-13.41222 -13,-24.870056 -13,-25.46185 0,-0.657548 2.52593,-1.07599 6.49523,-1.07599 h 6.49524 l 10.1338,20.2483 10.13379,20.24829 10.10954,-20.24829 10.10953,-20.2483 h 5.76143 c 3.67865,0 5.76144,0.41615 5.76144,1.151157 0,0.633136 -7.96718,16.833133 -17.70484,36.000003 l -17.70483,34.84884 h -6.86342 -6.86341 z"
       id="path12540"
       inkscape:connector-curvature="0" />
    <path
       style="fill:#e33137"
       d="m 41.751597,9.408802 c -2.84215,-1.01354 -6.733585,-3.03728 -8.647632,-4.49719 -9.96489,-7.60059 -11.549846,-28.2274 -3.033117,-39.473347 5.197482,-6.863038 18.115344,-10.668736 30.615389,-9.01952 13.64566,1.800364 21.529745,10.212438 22.518109,24.026127 l 0.483531,6.75797 H 59.986122 36.284367 l 0.700918,2.25 c 2.151108,6.90522 4.805187,10.17155 10.043361,12.3602 7.229064,3.0205 18.480033,0.32805 21.395845,-5.12019 1.203753,-2.24924 1.942398,-2.49001 7.63888,-2.49001 h 6.306269 l -1.000154,2.63061 c -3.460945,9.10297 -11.580607,13.60024 -25.450344,14.09627 -6.841718,0.24469 -10.239225,-0.12004 -14.167545,-1.52092 z m 28.663807,-33.45596 c -0.0059,-3.52108 -3.419832,-8.24858 -7.279331,-10.080035 -4.60696,-2.186146 -13.262779,-2.14624 -17.696998,0.08159 -3.761756,1.889975 -8.019933,7.409895 -8.019933,10.396325 0,1.72799 1.105817,1.85212 16.5,1.85212 16.445552,0 16.499988,-0.007 16.496262,-2.25 z"
       id="path12538"
       inkscape:connector-curvature="0" />
    <path
       style="fill:#0062d0"
       d="m 108.91914,10.325682 c -3.76993,-0.99871 -11.159703,-4.76321 -11.991166,-6.10855 -1.226224,-1.98407 -2.508832,-0.9689 -2.508832,1.98571 0,2.9697 -0.05556,3 -5.5,3 h -5.5 v -37 -37 h 5.5 5.5 v 14.5 c 0,7.975 0.27254,14.5 0.605644,14.5 0.333104,0 1.93803,-1.121129 3.566502,-2.491398 4.323262,-3.637786 12.925672,-5.854841 20.391972,-5.255519 10.58528,0.849686 19.06676,6.832556 22.98707,16.215187 1.75323,4.19607 1.89249,15.31883 0.26001,20.76755 -1.58386,5.28646 -8.78918,13.13809 -13.95252,15.20405 -4.84601,1.93899 -15.04522,2.82567 -19.35868,1.68297 z m 13.19841,-9.21889 c 11.96275,-5.79106 13.22732,-26.12414 2.11677,-34.035552 -4.66518,-3.321907 -14.0589,-3.805033 -19.54681,-1.005308 -6.990145,3.5661 -10.745336,12.66357 -9.095913,22.0361 2.180421,12.38982 14.907183,18.62931 26.525953,13.00476 z"
       id="path12536"
       inkscape:connector-curvature="0" />
  </g>
</svg>
