<?xml version="1.0" encoding="UTF-8" standalone="no"?>
<svg
   xmlns:dc="http://purl.org/dc/elements/1.1/"
   xmlns:cc="http://creativecommons.org/ns#"
   xmlns:rdf="http://www.w3.org/1999/02/22-rdf-syntax-ns#"
   xmlns:svg="http://www.w3.org/2000/svg"
   xmlns="http://www.w3.org/2000/svg"
   xmlns:sodipodi="http://sodipodi.sourceforge.net/DTD/sodipodi-0.dtd"
   xmlns:inkscape="http://www.inkscape.org/namespaces/inkscape"
   width="100"
   height="100"
   viewBox="0 0 100 100"
   fill="none"
   version="1.1"
   id="svg865"
   sodipodi:docname="bee-mask.svg"
   inkscape:version="0.92.5 (2060ec1f9f, 2020-04-08)">
  <metadata
     id="metadata871">
    <rdf:RDF>
      <cc:Work
         rdf:about="">
        <dc:format>image/svg+xml</dc:format>
        <dc:type
           rdf:resource="http://purl.org/dc/dcmitype/StillImage" />
        <dc:title></dc:title>
      </cc:Work>
    </rdf:RDF>
  </metadata>
  <defs
     id="defs869" />
  <sodipodi:namedview
     pagecolor="#ffffff"
     bordercolor="#666666"
     borderopacity="1"
     objecttolerance="10"
     gridtolerance="10"
     guidetolerance="10"
     inkscape:pageopacity="0"
     inkscape:pageshadow="2"
     inkscape:window-width="1626"
     inkscape:window-height="986"
     id="namedview867"
     showgrid="false"
     inkscape:zoom="8.44"
     inkscape:cx="16.824645"
     inkscape:cy="31.042654"
     inkscape:window-x="54"
     inkscape:window-y="27"
     inkscape:window-maximized="1"
     inkscape:current-layer="svg865" />
  <path
     d="M 48.5615,0.0671058 C 47.994,0.159478 46.8397,0.474981 46.5205,0.624935 46.437,0.664283 46.1635,0.792644 45.9127,0.910208 45.4335,1.13478 45.319,1.19596 45.0007,1.39606 c -0.329,0.2073 -0.8685,0.61013 -0.8685,0.649 0,0.02015 -0.0187,0.03647 -0.0417,0.03647 -0.0233,0 -0.108,0.06094 -0.1885,0.13556 C 43.8215,2.29146 43.5227,2.5681 43.2382,2.83178 42.9537,3.09522 42.2545,3.7423 41.6847,4.26942 41.1147,4.79654 40.4485,5.41531 40.204,5.64468 39.9592,5.87381 39.2925,6.49258 38.722,7.0197 38.1517,7.54681 37.5537,8.10008 37.3935,8.24908 37.0735,8.54635 37.0605,8.55595 36.69,8.77164 36.3792,8.95206 36.179,9.02308 35.752,9.10418 35.2597,9.19751 35.0752,9.18911 33.8847,9.0202 33.658,8.98781 33.1792,8.92183 32.821,8.87337 32.4627,8.8249 31.984,8.7594 31.7572,8.72797 31.5302,8.6963 31.1102,8.6404 30.8237,8.60345 30.537,8.5665 30.0582,8.50052 29.7597,8.4571 29.4612,8.41343 28.9825,8.34769 28.696,8.31098 28.028,8.22533 27.4542,8.14783 26.7202,8.04418 c -1.147,-0.16195 -1.462,-0.19074 -2.0625,-0.1881 -1.087,0.00456 -2.4217,0.2512 -3.3,0.60989 -0.7252,0.29631 -1.2187,0.53264 -1.4112,0.67588 -0.0358,0.02663 -0.1188,0.07413 -0.1845,0.1058 -0.0658,0.03143 -0.1195,0.07294 -0.1195,0.0919 0,0.01919 -0.0203,0.03454 -0.0453,0.03454 -0.0247,0 -0.0687,0.01944 -0.0977,0.04295 -0.0288,0.02375 -0.151,0.11277 -0.2718,0.19794 -0.1207,0.08541 -0.2555,0.1833 -0.2992,0.21761 -0.1765,0.13844 -1.1843,1.11351 -1.2845,1.24281 -0.059,0.0763 -0.1808,0.2289 -0.2703,0.3395 -0.0895,0.1104 -0.1627,0.2198 -0.1627,0.2433 0,0.0235 -0.0148,0.0489 -0.0325,0.0566 -0.092,0.0391 -0.7303,1.1605 -0.9093,1.5974 -0.222,0.5416 -0.4237,1.263 -0.5532,1.9794 -0.1713,0.9461 -0.2533,1.3777 -0.31,1.6313 -0.0343,0.1521 -0.0623,0.3205 -0.0623,0.374 0,0.0536 -0.0282,0.2383 -0.063,0.4108 -0.1382,0.6852 -0.2975,1.5461 -0.4362,2.3554 -0.0855,0.4992 -0.1625,0.9114 -0.2645,1.4167 -0.0418,0.2064 -0.089,0.4688 -0.105,0.5835 -0.0285,0.2025 -0.0703,0.4254 -0.1983,1.0535 -0.034,0.1668 -0.062,0.3508 -0.062,0.4089 0,0.1027 -0.0887,0.3412 -0.2702,0.7255 -0.1303,0.2757 -0.5255,0.7591 -0.7613,0.9312 -0.1132,0.0827 -0.2282,0.1682 -0.2552,0.1902 -0.047,0.0379 -0.3143,0.1778 -1.2098,0.6332 -0.215,0.1094 -0.4985,0.2541 -0.6297,0.3215 -0.4888,0.251 -0.858,0.4398 -1.25927,0.6437 -0.5125,0.2608 -1.11875,0.5701 -1.433,0.7313 -0.13125,0.0674 -0.36575,0.1864 -0.521,0.2644 -0.15525,0.078 -0.331,0.1675 -0.39075,0.1989 -0.05975,0.0317 -0.146,0.0754 -0.19175,0.0972 -0.046,0.0221 -0.2315,0.1159 -0.4125,0.2087 -0.18125,0.0929 -0.466,0.2378 -0.63325,0.3222 -0.48875,0.2467 -1.33325,0.6757 -1.498,0.7606 -0.08375,0.0432 -0.21075,0.1145 -0.28225,0.1584 -0.07175,0.0439 -0.1595,0.0931 -0.1955,0.1089 -0.1115,0.0499 -0.673,0.4326 -0.9065,0.6178 -0.527,0.418 -1.35125,1.2183 -1.35125,1.3122 0,0.0232 -0.01825,0.0422 -0.0405,0.0422 -0.022,0 -0.1035,0.0938 -0.181,0.2082 -0.07725,0.1147 -0.15675,0.2085 -0.17675,0.2085 -0.01975,0 -0.036,0.0178 -0.036,0.0396 0,0.0216 -0.05875,0.1229 -0.13025,0.2248 -0.07175,0.1018 -0.13025,0.2059 -0.13025,0.2313 0,0.0252 -0.01625,0.0461 -0.036,0.0461 -0.0305,0 -0.16175,0.2409 -0.620504,1.1394 -0.045,0.0881 -0.08175,0.1922 -0.08175,0.2313 0,0.0391 -0.016999,0.0888 -0.037749,0.1106 -0.0395,0.0413 -0.149001,0.3882 -0.302,0.9563 -0.3190005,1.1853 -0.3212505,2.92 -0.005,4.0519 0.04625,0.1656 0.08425,0.329 0.08425,0.363 0,0.0343 0.027,0.1236 0.05975,0.1989 0.033,0.0754 0.084,0.2119 0.11325,0.3035 0.1065,0.3333 0.748003,1.6663 1.203253,2.5003 0.025,0.0458 0.20125,0.3928 0.392,0.7711 0.1905,0.3782 0.5235,1.0344 0.7395,1.4586 0.35675,0.6993 0.78175,1.536 1.6835,3.3129 0.455,0.8968 0.4935,0.9937 0.56625,1.4278 0.1185,0.7061 -0.036,1.3179 -0.5755,2.2809 -0.02575,0.0459 -0.20325,0.3928 -0.3945,0.7709 -0.456,0.9017 -1.094,2.1577 -1.7255,3.3962 -0.91625,1.798 -1.546504,3.0406 -1.585254,3.1255 -0.02075,0.0458 -0.077999,0.1713 -0.127,0.279 -0.049,0.1075 -0.08925,0.2078 -0.08925,0.2229 0,0.0149 -0.02625,0.0864 -0.0585,0.1586 -0.032,0.0722 -0.088749,0.2344 -0.126249,0.3604 -0.03725,0.1262 -0.0985,0.3333 -0.13625,0.4604 -0.2417505,0.8141 -0.3302505,2.8081 -0.1602505,3.6028 0.1062505,0.4961 0.2834995,1.1247 0.4172505,1.4793 0.099749,0.2652 0.29125,0.6869 0.329999,0.727 0.02075,0.0218 0.038,0.0646 0.038,0.0953 0,0.0304 0.080751,0.1907 0.179754,0.3563 0.099,0.1653 0.202,0.3383 0.229,0.3841 0.15175,0.2565 0.409,0.6075 0.733,1 0.2235,0.2709 1.1765,1.1864 1.2355,1.1871 0.02975,3e-4 0.05425,0.0161 0.05425,0.0353 0,0.019 0.09275,0.0979 0.20625,0.1754 0.1135,0.0775 0.21275,0.1557 0.22075,0.1737 0.008,0.018 0.0405,0.0329 0.0725,0.0329 0.03175,0 0.06425,0.0141 0.07225,0.0314 0.01775,0.0384 0.48275,0.3323 0.61375,0.388 0.0525,0.0223 0.1835,0.0887 0.291,0.1478 0.10725,0.0587 0.41025,0.2157 0.673,0.3486 0.776,0.3925 1.13375,0.5756 2.019,1.0333 0.15525,0.0802 0.47775,0.2443 0.7165,0.3647 0.51625,0.2599 0.88275,0.4465 1.32425,0.6745 0.17925,0.0923 0.53097,0.2713 0.78177,0.3978 0.4142,0.2089 0.7502,0.3793 1.498,0.7603 0.8727,0.4446 1.0662,0.5518 1.2847,0.7123 0.2205,0.162 0.319,0.257 0.5823,0.5622 0.2575,0.2984 0.4965,0.9035 0.6075,1.5384 0.1027,0.5869 0.2957,1.6413 0.4347,2.3753 0.0325,0.1718 0.089,0.4813 0.1253,0.6876 0.0365,0.2063 0.0977,0.5533 0.1362,0.7709 0.0385,0.2178 0.1008,0.5458 0.1385,0.7294 0.0378,0.1833 0.0763,0.3896 0.0858,0.4582 0.0092,0.0689 0.0447,0.275 0.0785,0.4585 0.034,0.1833 0.0932,0.5115 0.1317,0.7291 0.0385,0.2179 0.1065,0.5836 0.1513,0.8127 0.0445,0.2291 0.1137,0.6044 0.154,0.8335 0.1187,0.6773 0.3707,1.614 0.459,1.7063 0.0207,0.0219 0.0377,0.0696 0.0377,0.1063 0,0.1039 0.6915,1.4816 0.7735,1.5411 0.0443,0.0321 0.2253,0.285 0.2253,0.3148 0,0.0386 0.4805,0.6216 0.5252,0.6374 0.0215,0.0077 0.0393,0.0336 0.0393,0.0576 0,0.0504 0.8365,0.8496 1.145,1.0941 0.5925,0.4693 1.458,0.9762 2.1332,1.2493 0.0718,0.029 0.2063,0.0844 0.299,0.1233 1.4428,0.6034 3.3713,0.7555 5.3918,0.4254 0.2135,-0.0348 0.6227,-0.0933 0.9092,-0.1298 0.2868,-0.0365 0.7068,-0.0924 0.9338,-0.1243 0.672,-0.094 2.1015,-0.2881 3.0827,-0.4184 0.2748,-0.0365 0.7535,-0.1017 1.064,-0.1454 0.3105,-0.0437 0.7695,-0.1073 1.0203,-0.1413 0.2507,-0.0341 0.686,-0.0938 0.967,-0.1327 0.6575,-0.0912 1.5235,0.0485 1.8555,0.2989 0.0357,0.0272 0.109,0.0619 0.1627,0.0778 0.0538,0.0156 0.0978,0.046 0.0978,0.0674 0,0.0213 0.0205,0.0389 0.0452,0.0389 0.0758,0 1.004,0.8366 2.8205,2.542 0.2808,0.2634 0.977,0.9103 1.547,1.4374 0.9313,0.8606 1.3328,1.2327 2.3843,2.2087 0.399,0.3705 0.5217,0.4751 0.7367,0.6272 0.0955,0.0677 0.1803,0.137 0.188,0.1543 0.008,0.0173 0.034,0.0312 0.058,0.0312 0.0238,0 0.1268,0.0657 0.2288,0.1459 0.102,0.0801 0.197,0.1458 0.2112,0.1458 0.0145,0 0.1108,0.055 0.2143,0.1219 3.201,2.0735 8.1605,1.5375 11.0577,-1.1943 0.1765,-0.1665 0.3275,-0.3028 0.3355,-0.3028 0.008,0 0.246,-0.2203 0.529,-0.4897 0.5188,-0.4938 0.7048,-0.6668 2.5878,-2.4065 0.5705,-0.5271 1.237,-1.1459 1.481,-1.3752 1.1255,-1.0564 1.5617,-1.4494 1.771,-1.5956 0.656,-0.4577 1.4382,-0.6473 2.2155,-0.5364 0.2432,0.0345 0.6767,0.0933 0.9632,0.1305 0.2865,0.0374 0.775,0.1039 1.0855,0.1478 0.3105,0.0439 0.7893,0.1099 1.064,0.1466 0.9903,0.1324 1.4205,0.191 1.9755,0.2689 0.3105,0.0435 0.7843,0.1085 1.053,0.144 0.2688,0.0358 0.7083,0.094 0.977,0.1298 0.2688,0.0357 0.6728,0.0933 0.8983,0.1279 1.765,0.2711 3.1545,0.2286 4.4752,-0.1368 0.4175,-0.1154 0.8888,-0.2728 0.9313,-0.3109 0.0227,-0.0202 0.0662,-0.0367 0.0967,-0.0367 0.084,0 0.67,-0.2711 1.0398,-0.4808 0.1802,-0.1023 0.337,-0.186 0.3485,-0.186 0.0322,0 0.339,-0.2248 0.3555,-0.2605 0.008,-0.0171 0.0337,-0.0312 0.0575,-0.0312 0.0557,0 0.5142,-0.3431 0.5142,-0.3849 0,-0.0175 0.0208,-0.0319 0.0463,-0.0319 0.0445,0 0.5155,-0.4119 0.7085,-0.6195 0.0505,-0.0542 0.1555,-0.1605 0.2335,-0.2358 0.255,-0.2474 0.8787,-1.0588 0.8787,-1.1435 0,-0.0199 0.0155,-0.0425 0.0348,-0.0499 0.0597,-0.0243 0.4485,-0.714 0.63,-1.1183 0.3397,-0.7565 0.5352,-1.4331 0.7045,-2.4379 0.0385,-0.2291 0.1057,-0.5948 0.1495,-0.8126 0.0437,-0.2177 0.1117,-0.5833 0.1512,-0.8124 0.0395,-0.2294 0.0988,-0.5574 0.1315,-0.7294 0.077,-0.4024 0.2163,-1.1629 0.3055,-1.6668 0.0385,-0.2178 0.097,-0.5367 0.1298,-0.7085 0.0327,-0.172 0.0915,-0.5 0.1305,-0.7294 0.039,-0.2291 0.1065,-0.5947 0.1502,-0.8124 0.0435,-0.2178 0.1118,-0.5835 0.1515,-0.8126 0.1268,-0.7306 0.2395,-1.2706 0.2808,-1.3448 0.022,-0.0398 0.0845,-0.1658 0.1385,-0.2804 0.2475,-0.5248 0.7752,-1.0569 1.2975,-1.3086 0.1072,-0.0516 0.332,-0.1663 0.4992,-0.2546 0.1673,-0.0883 0.4213,-0.2185 0.5645,-0.2896 0.1433,-0.0712 0.4363,-0.2197 0.6513,-0.3303 1.0377,-0.5336 1.2342,-0.6344 1.4765,-0.7558 0.1432,-0.0717 0.394,-0.1994 0.5575,-0.2836 0.1632,-0.0842 0.5247,-0.2649 0.8032,-0.4016 0.2785,-0.1368 0.516,-0.2604 0.528,-0.2745 0.012,-0.0139 0.139,-0.078 0.2823,-0.1423 0.1432,-0.0643 0.2702,-0.1283 0.2822,-0.1425 0.012,-0.0139 0.1878,-0.1065 0.3908,-0.2056 0.203,-0.0991 0.5645,-0.281 0.8032,-0.4043 0.2388,-0.1231 0.5515,-0.2819 0.6948,-0.3529 0.8402,-0.4163 1.485,-0.8254 2.035,-1.2911 0.299,-0.2531 0.8092,-0.7521 0.8092,-0.7915 0,-0.0237 0.0183,-0.0429 0.0408,-0.0429 0.0222,0 0.1347,-0.1219 0.2495,-0.2709 0.115,-0.149 0.2237,-0.2709 0.2415,-0.2709 0.018,0 0.0327,-0.0209 0.0327,-0.0461 0,-0.0254 0.049,-0.1051 0.109,-0.1773 0.1578,-0.189 0.1628,-0.1962 0.2785,-0.4021 0.0578,-0.1029 0.1178,-0.1965 0.1333,-0.208 0.0325,-0.0242 0.4392,-0.8179 0.5447,-1.0626 0.6743,-1.5677 0.8663,-3.7863 0.449,-5.1928 -0.045,-0.1514 -0.0817,-0.3016 -0.0817,-0.3337 0,-0.2219 -0.344,-1.0746 -0.7798,-1.9328 -0.1862,-0.3667 -0.5242,-1.0325 -0.7512,-1.4794 -0.227,-0.447 -0.647,-1.2721 -0.9335,-1.8336 -2.5218,-4.9439 -2.3695,-4.6022 -2.3683,-5.3131 0.0013,-0.5809 0.1015,-0.8551 0.8383,-2.292 0.2352,-0.4583 0.5875,-1.1522 0.7832,-1.5418 0.1955,-0.3896 0.3765,-0.7459 0.402,-0.7918 0.1005,-0.1814 0.724,-1.4028 1.6805,-3.292 0.5973,-1.18 0.7195,-1.4297 0.7945,-1.6253 0.0353,-0.0916 0.0933,-0.2418 0.1293,-0.3335 0.832,-2.1259 0.642,-4.69 -0.5108,-6.8966 -0.0897,-0.1718 -0.2195,-0.3933 -0.2882,-0.4917 -0.0688,-0.0986 -0.125,-0.1895 -0.125,-0.2017 0,-0.0125 -0.034,-0.0658 -0.076,-0.1183 -0.0418,-0.0526 -0.1053,-0.1377 -0.141,-0.1893 -0.4163,-0.5991 -1.3795,-1.5543 -1.9215,-1.905 -0.0895,-0.0581 -0.1628,-0.1217 -0.1628,-0.1416 0,-0.0199 -0.018,-0.0362 -0.04,-0.0362 -0.022,0 -0.1735,-0.0862 -0.3365,-0.1917 -0.163,-0.1056 -0.3355,-0.209 -0.3835,-0.2299 -0.0477,-0.0211 -0.1747,-0.0863 -0.2822,-0.1454 -0.1073,-0.059 -0.4103,-0.2159 -0.673,-0.3486 -0.776,-0.3925 -1.1338,-0.5756 -2.019,-1.0333 -0.1553,-0.0804 -0.4778,-0.2445 -0.7165,-0.3647 -0.5163,-0.2601 -0.8828,-0.4465 -1.3243,-0.6745 -0.1792,-0.0923 -0.531,-0.2713 -0.7817,-0.3978 -0.2508,-0.1264 -0.6318,-0.3193 -0.8468,-0.4287 -1.85,-0.9415 -1.86,-0.9472 -2.1725,-1.2203 -0.2055,-0.1797 -0.4925,-0.5422 -0.6162,-0.7783 -0.2358,-0.4491 -0.261,-0.5425 -0.4728,-1.7503 -0.0362,-0.2063 -0.1037,-0.5472 -0.15,-0.7579 -0.046,-0.2104 -0.0835,-0.4261 -0.0832,-0.4791 2e-4,-0.0531 -0.0278,-0.2277 -0.0625,-0.3882 C 85.2865,20.7778 85.2255,20.4589 85.1857,20.2298 85.146,20.0007 85.0875,19.6725 85.056,19.5004 85.0242,19.3286 84.9865,19.113 84.972,19.0213 84.9575,18.9296 84.9182,18.7233 84.8847,18.5628 84.8215,18.2612 84.7425,17.8241 84.6205,17.1043 84.5817,16.8752 84.514,16.5095 84.4697,16.2917 84.4255,16.074 84.357,15.7084 84.3172,15.4793 84.0655,14.0246 83.6525,12.9329 82.9532,11.8729 82.56,11.277 81.941,10.5836 81.3155,10.0382 81.0137,9.77549 80.2055,9.20759 80.133,9.20759 80.1107,9.20759 80.0862,9.19199 80.0782,9.1728 80.056,9.11977 79.36,8.7606 78.9782,8.60513 78.9065,8.5761 78.7502,8.51228 78.6307,8.46333 77.586,8.03578 75.8182,7.76611 74.7445,7.87 c -0.7598,0.07365 -1.175,0.12284 -1.5848,0.18786 -0.215,0.03407 -0.6252,0.09189 -0.912,0.1286 -0.2865,0.03647 -0.7065,0.09261 -0.9335,0.12428 -0.672,0.09429 -2.1015,0.28815 -3.083,0.41843 -0.2745,0.03647 -0.7532,0.10221 -1.0637,0.14588 -0.3105,0.0439 -0.7893,0.1094 -1.0638,0.14563 -0.2747,0.03647 -0.619,0.08398 -0.765,0.10581 C 64.836,9.20111 64.2052,9.15408 63.824,9.01324 63.561,8.91632 63.1947,8.73229 63.1945,8.69702 c 0,-0.01727 -0.027,-0.03119 -0.0598,-0.03119 -0.0627,0 -0.5875,-0.45562 -1.387,-1.20395 C 60.3862,6.18739 60.4997,6.29296 57.7495,3.74854 57.4647,3.48486 57.0087,3.05827 56.736,2.80035 56.4635,2.54267 56.2337,2.33153 56.2255,2.33153 c -0.008,0 -0.096,-0.07461 -0.195,-0.16603 C 55.9315,2.07409 55.7637,1.93973 55.658,1.86679 55.552,1.79386 55.4655,1.71852 55.4655,1.69957 c 0,-0.0192 -0.0218,-0.03479 -0.048,-0.03479 -0.0265,0 -0.1095,-0.04703 -0.1848,-0.10461 C 55.016,1.39366 55.0127,1.3915 54.9442,1.35911 54.832,1.30585 54.6955,1.22595 54.6342,1.17725 54.5025,1.07264 53.5445,0.64221 53.0772,0.47738 52.719,0.351179 51.8725,0.142203 51.4017,0.0637468 50.8822,-0.0228666 49.101,-0.0207073 48.5615,0.0671058 Z"
     id="path885"
     style="fill:#000000;fill-opacity:1" />
</svg>
