<svg width="100" height="100" viewBox="0 0 100 100" fill="none" xmlns="http://www.w3.org/2000/svg">
<path fill-rule="evenodd" clip-rule="evenodd" d="M48.5615 0.0671058C47.994 0.159478 46.8397 0.474981 46.5205 0.624935C46.437 0.664283 46.1635 0.792644 45.9127 0.910208C45.4335 1.13478 45.319 1.19596 45.0007 1.39606C44.6717 1.60336 44.1322 2.00619 44.1322 2.04506C44.1322 2.06521 44.1135 2.08153 44.0905 2.08153C44.0672 2.08153 43.9825 2.14247 43.902 2.21709C43.8215 2.29146 43.5227 2.5681 43.2382 2.83178C42.9537 3.09522 42.2545 3.7423 41.6847 4.26942C41.1147 4.79654 40.4485 5.41531 40.204 5.64468C39.9592 5.87381 39.2925 6.49258 38.722 7.0197C38.1517 7.54681 37.5537 8.10008 37.3935 8.24908C37.0735 8.54635 37.0605 8.55595 36.69 8.77164C36.3792 8.95206 36.179 9.02308 35.752 9.10418C35.2597 9.19751 35.0752 9.18911 33.8847 9.0202C33.658 8.98781 33.1792 8.92183 32.821 8.87337C32.4627 8.8249 31.984 8.7594 31.7572 8.72797C31.5302 8.6963 31.1102 8.6404 30.8237 8.60345C30.537 8.5665 30.0582 8.50052 29.7597 8.4571C29.4612 8.41343 28.9825 8.34769 28.696 8.31098C28.028 8.22533 27.4542 8.14783 26.7202 8.04418C25.5732 7.88223 25.2582 7.85344 24.6577 7.85608C23.5707 7.86064 22.236 8.10728 21.3577 8.46597C20.6325 8.76228 20.139 8.99861 19.9465 9.14185C19.9107 9.16848 19.8277 9.21598 19.762 9.24765C19.6962 9.27908 19.6425 9.32059 19.6425 9.33955C19.6425 9.35874 19.6222 9.37409 19.5972 9.37409C19.5725 9.37409 19.5285 9.39353 19.4995 9.41704C19.4707 9.44079 19.3485 9.52981 19.2277 9.61498C19.107 9.70039 18.9722 9.79828 18.9285 9.83259C18.752 9.97103 17.7442 10.9461 17.644 11.0754C17.585 11.1517 17.4632 11.3043 17.3737 11.4149C17.2842 11.5253 17.211 11.6347 17.211 11.6582C17.211 11.6817 17.1962 11.7071 17.1785 11.7148C17.0865 11.7539 16.4482 12.8753 16.2692 13.3122C16.0472 13.8538 15.8455 14.5752 15.716 15.2916C15.5447 16.2377 15.4627 16.6693 15.406 16.9229C15.3717 17.075 15.3437 17.2434 15.3437 17.2969C15.3437 17.3505 15.3155 17.5352 15.2807 17.7077C15.1425 18.3929 14.9832 19.2538 14.8445 20.0631C14.759 20.5623 14.682 20.9745 14.58 21.4798C14.5382 21.6862 14.491 21.9486 14.475 22.0633C14.4465 22.2658 14.4047 22.4887 14.2767 23.1168C14.2427 23.2836 14.2147 23.4676 14.2147 23.5257C14.2147 23.6284 14.126 23.8669 13.9445 24.2512C13.8142 24.5269 13.419 25.0103 13.1832 25.1824C13.07 25.2651 12.955 25.3506 12.928 25.3726C12.881 25.4105 12.6137 25.5504 11.7182 26.0058C11.5032 26.1152 11.2197 26.2599 11.0885 26.3273C10.5997 26.5783 10.2305 26.7671 9.82923 26.971C9.31673 27.2318 8.71048 27.5411 8.39623 27.7023C8.26498 27.7697 8.03048 27.8887 7.87523 27.9667C7.71998 28.0447 7.54423 28.1342 7.48448 28.1656C7.42473 28.1973 7.33848 28.241 7.29273 28.2628C7.24673 28.2849 7.06123 28.3787 6.88023 28.4715C6.69898 28.5644 6.41423 28.7093 6.24698 28.7937C5.75823 29.0404 4.91373 29.4694 4.74898 29.5543C4.66523 29.5975 4.53823 29.6688 4.46673 29.7127C4.39498 29.7566 4.30723 29.8058 4.27123 29.8216C4.15973 29.8715 3.59823 30.2542 3.36473 30.4394C2.83773 30.8574 2.01348 31.6577 2.01348 31.7516C2.01348 31.7748 1.99523 31.7938 1.97298 31.7938C1.95098 31.7938 1.86948 31.8876 1.79198 32.002C1.71473 32.1167 1.63523 32.2105 1.61523 32.2105C1.59548 32.2105 1.57923 32.2283 1.57923 32.2501C1.57923 32.2717 1.52048 32.373 1.44898 32.4749C1.37723 32.5767 1.31873 32.6808 1.31873 32.7062C1.31873 32.7314 1.30248 32.7523 1.28273 32.7523C1.25223 32.7523 1.12098 32.9932 0.662226 33.8917C0.617226 33.9798 0.580476 34.0839 0.580476 34.123C0.580476 34.1621 0.563477 34.2118 0.542727 34.2336C0.503227 34.2749 0.393726 34.6218 0.240727 35.1899C-0.0782735 36.3752 -0.0805235 38.1099 0.235727 39.2418C0.281977 39.4074 0.319977 39.5708 0.319977 39.6048C0.319977 39.6391 0.346977 39.7284 0.379727 39.8037C0.412727 39.8791 0.463727 40.0156 0.492977 40.1072C0.599477 40.4405 1.24098 41.7735 1.69623 42.6075C1.72123 42.6533 1.89748 43.0003 2.08823 43.3786C2.27873 43.7568 2.61173 44.413 2.82773 44.8372C3.18448 45.5365 3.60948 46.3732 4.51123 48.1501C4.96623 49.0469 5.00473 49.1438 5.07748 49.5779C5.19598 50.284 5.04148 50.8958 4.50198 51.8588C4.47623 51.9047 4.29873 52.2516 4.10748 52.6297C3.65148 53.5314 3.01348 54.7874 2.38198 56.0259C1.46573 57.8239 0.835476 59.0665 0.796726 59.1514C0.775976 59.1972 0.718727 59.3227 0.669726 59.4304C0.620726 59.5379 0.580476 59.6382 0.580476 59.6533C0.580476 59.6682 0.554226 59.7397 0.521976 59.8119C0.489976 59.8841 0.433227 60.0463 0.395727 60.1723C0.358477 60.2985 0.297227 60.5056 0.259477 60.6327C0.0177265 61.4468 -0.0707735 63.4408 0.0992265 64.2355C0.205477 64.7316 0.382726 65.3602 0.516477 65.7148C0.616226 65.98 0.807727 66.4017 0.846476 66.4418C0.867226 66.4636 0.884476 66.5064 0.884476 66.5371C0.884476 66.5675 0.965227 66.7278 1.06423 66.8934C1.16323 67.0587 1.26623 67.2317 1.29323 67.2775C1.44498 67.534 1.70223 67.885 2.02623 68.2775C2.24973 68.5484 3.20273 69.4639 3.26173 69.4646C3.29148 69.4649 3.31598 69.4807 3.31598 69.4999C3.31598 69.5189 3.40873 69.5978 3.52223 69.6753C3.63573 69.7528 3.73498 69.831 3.74298 69.849C3.75098 69.867 3.78348 69.8819 3.81548 69.8819C3.84723 69.8819 3.87973 69.896 3.88773 69.9133C3.90548 69.9517 4.37048 70.2456 4.50148 70.3013C4.55398 70.3236 4.68498 70.39 4.79248 70.4491C4.89973 70.5078 5.20273 70.6648 5.46548 70.7977C6.24148 71.1902 6.59923 71.3733 7.48448 71.831C7.63973 71.9112 7.96223 72.0753 8.20098 72.1957C8.71723 72.4556 9.08373 72.6422 9.52523 72.8702C9.70448 72.9625 10.0562 73.1415 10.307 73.268C10.7212 73.4769 11.0572 73.6473 11.805 74.0283C12.6777 74.4729 12.8712 74.5801 13.0897 74.7406C13.3102 74.9026 13.4087 74.9976 13.672 75.3028C13.9295 75.6012 14.1685 76.2063 14.2795 76.8412C14.3822 77.4281 14.5752 78.4825 14.7142 79.2165C14.7467 79.3883 14.8032 79.6978 14.8395 79.9041C14.876 80.1104 14.9372 80.4574 14.9757 80.675C15.0142 80.8928 15.0765 81.2208 15.1142 81.4044C15.152 81.5877 15.1905 81.794 15.2 81.8626C15.2092 81.9315 15.2447 82.1376 15.2785 82.3211C15.3125 82.5044 15.3717 82.8326 15.4102 83.0502C15.4487 83.2681 15.5167 83.6338 15.5615 83.8629C15.606 84.092 15.6752 84.4673 15.7155 84.6964C15.8342 85.3737 16.0862 86.3104 16.1745 86.4027C16.1952 86.4246 16.2122 86.4723 16.2122 86.509C16.2122 86.6129 16.9037 87.9906 16.9857 88.0501C17.03 88.0822 17.211 88.3351 17.211 88.3649C17.211 88.4035 17.6915 88.9865 17.7362 89.0023C17.7577 89.01 17.7755 89.0359 17.7755 89.0599C17.7755 89.1103 18.612 89.9095 18.9205 90.154C19.513 90.6233 20.3785 91.1302 21.0537 91.4033C21.1255 91.4323 21.26 91.4877 21.3527 91.5266C22.7955 92.13 24.724 92.2821 26.7445 91.952C26.958 91.9172 27.3672 91.8587 27.6537 91.8222C27.9405 91.7857 28.3605 91.7298 28.5875 91.6979C29.2595 91.6039 30.689 91.4098 31.6702 91.2795C31.945 91.243 32.4237 91.1778 32.7342 91.1341C33.0447 91.0904 33.5037 91.0268 33.7545 90.9928C34.0052 90.9587 34.4405 90.899 34.7215 90.8601C35.379 90.7689 36.245 90.9086 36.577 91.159C36.6127 91.1862 36.686 91.2209 36.7397 91.2368C36.7935 91.2524 36.8375 91.2828 36.8375 91.3042C36.8375 91.3255 36.858 91.3431 36.8827 91.3431C36.9585 91.3431 37.8867 92.1797 39.7032 93.8851C39.984 94.1485 40.6802 94.7954 41.2502 95.3225C42.1815 96.1831 42.583 96.5552 43.6345 97.5312C44.0335 97.9017 44.1562 98.0063 44.3712 98.1584C44.4667 98.2261 44.5515 98.2954 44.5592 98.3127C44.5672 98.33 44.5932 98.3439 44.6172 98.3439C44.641 98.3439 44.744 98.4096 44.846 98.4898C44.948 98.5699 45.043 98.6356 45.0572 98.6356C45.0717 98.6356 45.168 98.6906 45.2715 98.7575C48.4725 100.831 53.432 100.295 56.3292 97.5632C56.5057 97.3967 56.6567 97.2604 56.6647 97.2604C56.6727 97.2604 56.9107 97.0401 57.1937 96.7707C57.7125 96.2769 57.8985 96.1039 59.7815 94.3642C60.352 93.8371 61.0185 93.2183 61.2625 92.989C62.388 91.9326 62.8242 91.5396 63.0335 91.3934C63.6895 90.9357 64.4717 90.7461 65.249 90.857C65.4922 90.8915 65.9257 90.9503 66.2122 90.9875C66.4987 91.0249 66.9872 91.0914 67.2977 91.1353C67.6082 91.1792 68.087 91.2452 68.3617 91.2819C69.352 91.4143 69.7822 91.4729 70.3372 91.5508C70.6477 91.5943 71.1215 91.6593 71.3902 91.6948C71.659 91.7306 72.0985 91.7888 72.3672 91.8246C72.636 91.8603 73.04 91.9179 73.2655 91.9525C75.0305 92.2236 76.42 92.1811 77.7407 91.8157C78.1582 91.7003 78.6295 91.5429 78.672 91.5048C78.6947 91.4846 78.7382 91.4681 78.7687 91.4681C78.8527 91.4681 79.4387 91.197 79.8085 90.9873C79.9887 90.885 80.1455 90.8013 80.157 90.8013C80.1892 90.8013 80.496 90.5765 80.5125 90.5408C80.5205 90.5237 80.5462 90.5096 80.57 90.5096C80.6257 90.5096 81.0842 90.1665 81.0842 90.1247C81.0842 90.1072 81.105 90.0928 81.1305 90.0928C81.175 90.0928 81.646 89.6809 81.839 89.4733C81.8895 89.4191 81.9945 89.3128 82.0725 89.2375C82.3275 88.9901 82.9512 88.1787 82.9512 88.094C82.9512 88.0741 82.9667 88.0515 82.986 88.0441C83.0457 88.0198 83.4345 87.3301 83.616 86.9258C83.9557 86.1693 84.1512 85.4927 84.3205 84.4879C84.359 84.2588 84.4262 83.8931 84.47 83.6753C84.5137 83.4576 84.5817 83.092 84.6212 82.8629C84.6607 82.6335 84.72 82.3055 84.7527 82.1335C84.8297 81.7311 84.969 80.9706 85.0582 80.4667C85.0967 80.2489 85.1552 79.93 85.188 79.7582C85.2207 79.5862 85.2795 79.2582 85.3185 79.0288C85.3575 78.7997 85.425 78.4341 85.4687 78.2164C85.5122 77.9986 85.5805 77.6329 85.6202 77.4038C85.747 76.6732 85.8597 76.1332 85.901 76.059C85.923 76.0192 85.9855 75.8932 86.0395 75.7786C86.287 75.2538 86.8147 74.7217 87.337 74.47C87.4442 74.4184 87.669 74.3037 87.8362 74.2154C88.0035 74.1271 88.2575 73.9969 88.4007 73.9258C88.544 73.8546 88.837 73.7061 89.052 73.5955C90.0897 73.0619 90.2862 72.9611 90.5285 72.8397C90.6717 72.768 90.9225 72.6403 91.086 72.5561C91.2492 72.4719 91.6107 72.2912 91.8892 72.1545C92.1677 72.0177 92.4052 71.8941 92.4172 71.88C92.4292 71.8661 92.5562 71.802 92.6995 71.7377C92.8427 71.6734 92.9697 71.6094 92.9817 71.5952C92.9937 71.5813 93.1695 71.4887 93.3725 71.3896C93.5755 71.2905 93.937 71.1086 94.1757 70.9853C94.4145 70.8622 94.7272 70.7034 94.8705 70.6324C95.7107 70.2161 96.3555 69.807 96.9055 69.3413C97.2045 69.0882 97.7147 68.5892 97.7147 68.5498C97.7147 68.5261 97.733 68.5069 97.7555 68.5069C97.7777 68.5069 97.8902 68.385 98.005 68.236C98.12 68.087 98.2287 67.9651 98.2465 67.9651C98.2645 67.9651 98.2792 67.9442 98.2792 67.919C98.2792 67.8936 98.3282 67.8139 98.3882 67.7417C98.546 67.5527 98.551 67.5455 98.6667 67.3396C98.7245 67.2367 98.7845 67.1431 98.8 67.1316C98.8325 67.1074 99.2392 66.3137 99.3447 66.069C100.019 64.5013 100.211 62.2827 99.7937 60.8762C99.7487 60.7248 99.712 60.5746 99.712 60.5425C99.712 60.3206 99.368 59.4679 98.9322 58.6097C98.746 58.243 98.408 57.5772 98.181 57.1303C97.954 56.6833 97.534 55.8582 97.2475 55.2967C94.7257 50.3528 94.878 50.6945 94.8792 49.9836C94.8805 49.4027 94.9807 49.1285 95.7175 47.6916C95.9527 47.2333 96.305 46.5394 96.5007 46.1498C96.6962 45.7602 96.8772 45.4039 96.9027 45.358C97.0032 45.1766 97.6267 43.9552 98.5832 42.066C99.1805 40.886 99.3027 40.6363 99.3777 40.4407C99.413 40.3491 99.471 40.1989 99.507 40.1072C100.339 37.9813 100.149 35.4172 98.9962 33.2106C98.9065 33.0388 98.7767 32.8173 98.708 32.7189C98.6392 32.6203 98.583 32.5294 98.583 32.5172C98.583 32.5047 98.549 32.4514 98.507 32.3989C98.4652 32.3463 98.4017 32.2612 98.366 32.2096C97.9497 31.6105 96.9865 30.6553 96.4445 30.3046C96.355 30.2465 96.2817 30.1829 96.2817 30.163C96.2817 30.1431 96.2637 30.1268 96.2417 30.1268C96.2197 30.1268 96.0682 30.0406 95.9052 29.9351C95.7422 29.8295 95.5697 29.7261 95.5217 29.7052C95.474 29.6841 95.347 29.6189 95.2395 29.5598C95.1322 29.5008 94.8292 29.3439 94.5665 29.2112C93.7905 28.8187 93.4327 28.6356 92.5475 28.1779C92.3922 28.0975 92.0697 27.9334 91.831 27.8132C91.3147 27.5531 90.9482 27.3667 90.5067 27.1387C90.3275 27.0464 89.9757 26.8674 89.725 26.7409C89.4742 26.6145 89.0932 26.4216 88.8782 26.3122C87.0282 25.3707 87.0182 25.365 86.7057 25.0919C86.5002 24.9122 86.2132 24.5497 86.0895 24.3136C85.8537 23.8645 85.8285 23.7711 85.6167 22.5633C85.5805 22.357 85.513 22.0161 85.4667 21.8054C85.4207 21.595 85.3832 21.3793 85.3835 21.3263C85.3837 21.2732 85.3557 21.0986 85.321 20.9381C85.2865 20.7778 85.2255 20.4589 85.1857 20.2298C85.146 20.0007 85.0875 19.6725 85.056 19.5004C85.0242 19.3286 84.9865 19.113 84.972 19.0213C84.9575 18.9296 84.9182 18.7233 84.8847 18.5628C84.8215 18.2612 84.7425 17.8241 84.6205 17.1043C84.5817 16.8752 84.514 16.5095 84.4697 16.2917C84.4255 16.074 84.357 15.7084 84.3172 15.4793C84.0655 14.0246 83.6525 12.9329 82.9532 11.8729C82.56 11.277 81.941 10.5836 81.3155 10.0382C81.0137 9.77549 80.2055 9.20759 80.133 9.20759C80.1107 9.20759 80.0862 9.19199 80.0782 9.1728C80.056 9.11977 79.36 8.7606 78.9782 8.60513C78.9065 8.5761 78.7502 8.51228 78.6307 8.46333C77.586 8.03578 75.8182 7.76611 74.7445 7.87C73.9847 7.94365 73.5695 7.99284 73.1597 8.05786C72.9447 8.09193 72.5345 8.14975 72.2477 8.18646C71.9612 8.22293 71.5412 8.27907 71.3142 8.31074C70.6422 8.40503 69.2127 8.59889 68.2312 8.72917C67.9567 8.76564 67.478 8.83138 67.1675 8.87505C66.857 8.91895 66.3782 8.98445 66.1037 9.02068C65.829 9.05715 65.4847 9.10466 65.3387 9.12649C64.836 9.20111 64.2052 9.15408 63.824 9.01324C63.561 8.91632 63.1947 8.73229 63.1945 8.69702C63.1945 8.67975 63.1675 8.66583 63.1347 8.66583C63.072 8.66583 62.5472 8.21021 61.7477 7.46188C60.3862 6.18739 60.4997 6.29296 57.7495 3.74854C57.4647 3.48486 57.0087 3.05827 56.736 2.80035C56.4635 2.54267 56.2337 2.33153 56.2255 2.33153C56.2175 2.33153 56.1295 2.25692 56.0305 2.1655C55.9315 2.07409 55.7637 1.93973 55.658 1.86679C55.552 1.79386 55.4655 1.71852 55.4655 1.69957C55.4655 1.68037 55.4437 1.66478 55.4175 1.66478C55.391 1.66478 55.308 1.61775 55.2327 1.56017C55.016 1.39366 55.0127 1.3915 54.9442 1.35911C54.832 1.30585 54.6955 1.22595 54.6342 1.17725C54.5025 1.07264 53.5445 0.64221 53.0772 0.47738C52.719 0.351179 51.8725 0.142203 51.4017 0.0637468C50.8822 -0.0228666 49.101 -0.0207073 48.5615 0.0671058ZM73.507 19.0165C74.4237 19.2094 74.9087 19.7437 75.1797 20.8584C76.3202 25.5526 75.6772 30.0385 73.4007 33.2693C72.858 34.0395 71.7335 35.2475 71.1662 35.6693C70.8995 35.8677 70.8167 35.6374 71.9657 37.8987C72.4917 38.9338 72.9662 39.8707 73.5647 41.0554C73.899 41.7169 74.0205 41.9201 74.0817 41.9201C74.126 41.9201 74.3957 41.8887 74.6812 41.8503C79.2025 41.2421 84.3362 43.3314 88.1342 47.325C89.6097 48.8766 89.9762 49.5042 89.851 50.2648C89.5692 51.9745 87.3135 52.4157 86.1885 50.9812C83.8375 47.9833 80.4047 45.8859 77.3545 45.5833C76.8347 45.5317 75.328 45.5545 75.0485 45.6184L74.8965 45.6529L74.8655 45.9809C74.6495 48.2571 73.0675 50.3879 70.852 51.3867C69.2092 52.1276 67.1127 52.2957 66.2382 51.7574C64.831 50.8905 65.062 48.9277 66.6347 48.39C66.7495 48.3509 67.0852 48.3142 67.515 48.2945C69.5195 48.2014 70.7992 47.0718 70.8687 45.3336C70.9025 44.4931 70.9047 44.4989 69.7072 42.1493C69.4152 41.5763 69.054 40.8637 68.9045 40.5657C68.6022 39.9638 67.919 38.6168 67.3505 37.5021C66.8177 36.458 66.3807 35.9889 65.602 35.6249C64.1462 34.945 62.4797 35.2931 61.455 36.4915C60.1627 38.0026 57.685 37.1247 57.822 35.2046C57.8645 34.6112 58.3352 33.933 59.2065 33.2101C61.692 31.1477 65.467 30.9392 68.1927 32.7139L68.4365 32.8725L68.83 32.52C71.443 30.18 72.3822 26.0087 71.2737 21.6674C71.105 21.0062 71.0892 20.8735 71.141 20.5518C71.3145 19.4764 72.3867 18.7807 73.507 19.0165ZM35.1875 26.3345C43.4872 26.6932 51.4577 30.2472 57.769 36.4033C60.7427 39.304 60.7617 39.6574 58.086 42.2762C55.821 44.4924 52.874 46.5051 49.7667 47.9574C48.9452 48.3415 48.8675 48.4576 49.1062 48.9425C49.3635 49.4639 49.5007 49.4776 50.5137 49.0819C54.1837 47.6484 58.0935 46.8655 61.6095 46.86C63.4595 46.8569 64.1602 47.2647 64.4315 48.5016C66.3875 57.4263 64.0455 67.1146 58.3562 73.6324C55.1935 77.2558 52.6167 78.9305 49.0305 79.6932C43.7267 80.8213 38.307 78.2755 35.9852 73.5657C35.851 73.2929 35.7362 73.0647 35.7307 73.0583C35.7252 73.052 35.4395 73.0278 35.0957 73.0048C28.3367 72.552 21.4072 69.3982 16.1025 64.3605C15.2807 63.58 15.2142 63.4502 15.0842 62.3647C14.2677 55.5571 16.1122 48.343 19.929 43.4153C20.262 42.9856 20.2572 43.0564 19.9872 42.5396C17.605 37.9844 18.7847 32.5568 22.834 29.4423C25.317 27.5322 28.6265 26.3962 31.7787 26.3717C32.1132 26.369 32.6407 26.3535 32.9512 26.3369C33.8175 26.2911 34.1762 26.2908 35.1875 26.3345ZM32.1915 30.1287C25.7712 30.347 21.718 34.4627 23.003 39.459C23.826 42.6591 27.8722 45.9298 32.2782 46.9562C39.151 48.557 49.5127 45.2515 55.1547 39.6581C55.3962 39.4184 55.4365 39.4803 54.4207 38.529C49.4952 33.9157 43.7347 31.1436 37.3152 30.2966C35.7957 30.0961 34.449 30.0519 32.1915 30.1287ZM22.4892 46.181C19.7825 50.7101 18.5387 55.9249 18.9637 60.9641L19.0357 61.8184L19.806 62.5483C23.3387 65.8955 28.2702 68.2005 34.3407 69.3416C34.699 69.409 35.036 69.474 35.0897 69.4862L35.1875 69.5086V68.2425V66.9764L34.7207 66.6484C28.1042 62.001 24.0755 54.8735 24.0712 47.8089C24.0707 47.0229 24.0462 46.9348 23.688 46.4327C23.4865 46.15 22.9512 45.5454 22.9025 45.5454C22.8842 45.5454 22.698 45.8314 22.4892 46.181ZM27.127 48.6189C27.139 48.6589 27.2192 49.0011 27.3057 49.3792C27.9315 52.1225 28.289 53.3673 28.8367 54.7132C29.856 57.2169 31.615 59.5314 34.3732 61.9981C35.2982 62.8254 35.878 63.318 35.8975 63.293C35.9045 63.2841 36.0605 62.8362 36.2442 62.2976C36.6027 61.2469 36.866 60.6344 37.3282 59.7774L37.6197 59.2368L37.2122 58.84C33.9292 55.6425 32.3917 53.3423 31.6267 50.4836C31.5012 50.0155 31.5775 50.074 30.866 49.8994C29.5427 49.5743 28.6702 49.2744 27.72 48.8173C27.0925 48.5155 27.0965 48.5169 27.127 48.6189ZM60.1332 50.6995C56.212 51.0249 51.9747 52.3473 48.4095 54.3586C41.0912 58.4871 37.9125 63.8103 39.0115 70.0976C39.7262 74.1881 43.7065 76.8477 47.91 76.0442C50.1302 75.6197 52.2862 74.4268 53.6967 72.8421C53.8695 72.6482 54.2452 72.254 54.5317 71.9659C59.037 67.4392 61.5895 60.0075 61.0297 53.0465C60.9737 52.35 60.8242 50.9958 60.78 50.7856C60.7542 50.6633 60.6835 50.6539 60.1332 50.6995Z" fill="#343434"/>
</svg>
